<mxfile host="app.diagrams.net" modified="2024-02-21T18:46:58.057Z" agent="Mozilla/5.0 (Windows NT 10.0; Win64; x64) AppleWebKit/537.36 (KHTML, like Gecko) Chrome/120.0.0.0 Safari/537.36" etag="seJ2fGn6DNKPWlvmJLxj" version="23.1.5" type="github">
  <diagram name="Page-1" id="b9fnBNgqnIWqM7CLBv2y">
    <mxGraphModel dx="1367" dy="1096" grid="1" gridSize="10" guides="1" tooltips="1" connect="1" arrows="1" fold="1" page="1" pageScale="1" pageWidth="1100" pageHeight="850" math="0" shadow="0">
      <root>
        <mxCell id="0" />
        <mxCell id="1" parent="0" />
        <mxCell id="5GwKu-te4NYEdRIqfAdi-7" style="rounded=0;orthogonalLoop=1;jettySize=auto;html=1;exitX=1;exitY=1;exitDx=0;exitDy=0;entryX=0;entryY=0;entryDx=0;entryDy=0;" parent="1" source="5GwKu-te4NYEdRIqfAdi-2" target="5GwKu-te4NYEdRIqfAdi-6" edge="1">
          <mxGeometry relative="1" as="geometry" />
        </mxCell>
        <mxCell id="5GwKu-te4NYEdRIqfAdi-2" value="SPO Request" style="rounded=0;whiteSpace=wrap;html=1;" parent="1" vertex="1">
          <mxGeometry x="80" y="120" width="120" height="60" as="geometry" />
        </mxCell>
        <mxCell id="5GwKu-te4NYEdRIqfAdi-3" value="Input" style="text;html=1;align=center;verticalAlign=middle;resizable=0;points=[];autosize=1;strokeColor=none;fillColor=none;" parent="1" vertex="1">
          <mxGeometry x="115" y="80" width="50" height="30" as="geometry" />
        </mxCell>
        <mxCell id="5GwKu-te4NYEdRIqfAdi-8" style="rounded=0;orthogonalLoop=1;jettySize=auto;html=1;exitX=1;exitY=0.5;exitDx=0;exitDy=0;entryX=0;entryY=0.5;entryDx=0;entryDy=0;" parent="1" source="5GwKu-te4NYEdRIqfAdi-4" target="5GwKu-te4NYEdRIqfAdi-6" edge="1">
          <mxGeometry relative="1" as="geometry" />
        </mxCell>
        <mxCell id="5GwKu-te4NYEdRIqfAdi-4" value="Vendor Lock" style="rounded=0;whiteSpace=wrap;html=1;" parent="1" vertex="1">
          <mxGeometry x="80" y="200" width="120" height="60" as="geometry" />
        </mxCell>
        <mxCell id="5GwKu-te4NYEdRIqfAdi-9" style="rounded=0;orthogonalLoop=1;jettySize=auto;html=1;exitX=1;exitY=0;exitDx=0;exitDy=0;entryX=0;entryY=1;entryDx=0;entryDy=0;" parent="1" source="5GwKu-te4NYEdRIqfAdi-5" target="5GwKu-te4NYEdRIqfAdi-6" edge="1">
          <mxGeometry relative="1" as="geometry" />
        </mxCell>
        <mxCell id="5GwKu-te4NYEdRIqfAdi-5" value="REACT Improvement" style="rounded=0;whiteSpace=wrap;html=1;" parent="1" vertex="1">
          <mxGeometry x="80" y="280" width="120" height="60" as="geometry" />
        </mxCell>
        <mxCell id="5GwKu-te4NYEdRIqfAdi-11" value="" style="edgeStyle=orthogonalEdgeStyle;rounded=0;orthogonalLoop=1;jettySize=auto;html=1;" parent="1" source="5GwKu-te4NYEdRIqfAdi-6" target="5GwKu-te4NYEdRIqfAdi-10" edge="1">
          <mxGeometry relative="1" as="geometry" />
        </mxCell>
        <mxCell id="5GwKu-te4NYEdRIqfAdi-6" value="Develop a need" style="rounded=0;whiteSpace=wrap;html=1;" parent="1" vertex="1">
          <mxGeometry x="240" y="200" width="120" height="60" as="geometry" />
        </mxCell>
        <mxCell id="5GwKu-te4NYEdRIqfAdi-13" value="No" style="edgeStyle=orthogonalEdgeStyle;rounded=0;orthogonalLoop=1;jettySize=auto;html=1;" parent="1" source="5GwKu-te4NYEdRIqfAdi-10" target="5GwKu-te4NYEdRIqfAdi-12" edge="1">
          <mxGeometry relative="1" as="geometry" />
        </mxCell>
        <mxCell id="5GwKu-te4NYEdRIqfAdi-15" value="Yes" style="edgeStyle=orthogonalEdgeStyle;rounded=0;orthogonalLoop=1;jettySize=auto;html=1;" parent="1" source="5GwKu-te4NYEdRIqfAdi-10" target="5GwKu-te4NYEdRIqfAdi-14" edge="1">
          <mxGeometry relative="1" as="geometry" />
        </mxCell>
        <mxCell id="5GwKu-te4NYEdRIqfAdi-10" value="New&lt;br&gt;Product?" style="rhombus;whiteSpace=wrap;html=1;" parent="1" vertex="1">
          <mxGeometry x="260" y="280" width="80" height="80" as="geometry" />
        </mxCell>
        <mxCell id="5GwKu-te4NYEdRIqfAdi-17" value="Yes" style="edgeStyle=orthogonalEdgeStyle;rounded=0;orthogonalLoop=1;jettySize=auto;html=1;" parent="1" source="5GwKu-te4NYEdRIqfAdi-12" target="5GwKu-te4NYEdRIqfAdi-16" edge="1">
          <mxGeometry relative="1" as="geometry" />
        </mxCell>
        <mxCell id="5GwKu-te4NYEdRIqfAdi-19" value="No" style="edgeStyle=orthogonalEdgeStyle;rounded=0;orthogonalLoop=1;jettySize=auto;html=1;" parent="1" source="5GwKu-te4NYEdRIqfAdi-12" target="5GwKu-te4NYEdRIqfAdi-18" edge="1">
          <mxGeometry relative="1" as="geometry" />
        </mxCell>
        <mxCell id="5GwKu-te4NYEdRIqfAdi-12" value="Reverse&lt;br&gt;engineer?" style="rhombus;whiteSpace=wrap;html=1;" parent="1" vertex="1">
          <mxGeometry x="260" y="400" width="80" height="80" as="geometry" />
        </mxCell>
        <mxCell id="5GwKu-te4NYEdRIqfAdi-26" style="rounded=0;orthogonalLoop=1;jettySize=auto;html=1;exitX=1;exitY=1;exitDx=0;exitDy=0;entryX=0;entryY=0;entryDx=0;entryDy=0;" parent="1" source="5GwKu-te4NYEdRIqfAdi-14" target="5GwKu-te4NYEdRIqfAdi-25" edge="1">
          <mxGeometry relative="1" as="geometry" />
        </mxCell>
        <mxCell id="5GwKu-te4NYEdRIqfAdi-14" value="New product procedure" style="rounded=0;whiteSpace=wrap;html=1;" parent="1" vertex="1">
          <mxGeometry x="400" y="290" width="120" height="60" as="geometry" />
        </mxCell>
        <mxCell id="5GwKu-te4NYEdRIqfAdi-27" value="" style="rounded=0;orthogonalLoop=1;jettySize=auto;html=1;" parent="1" source="5GwKu-te4NYEdRIqfAdi-16" target="5GwKu-te4NYEdRIqfAdi-25" edge="1">
          <mxGeometry relative="1" as="geometry" />
        </mxCell>
        <mxCell id="5GwKu-te4NYEdRIqfAdi-41" style="edgeStyle=none;rounded=0;orthogonalLoop=1;jettySize=auto;html=1;exitX=0.5;exitY=0;exitDx=0;exitDy=0;strokeColor=default;align=center;verticalAlign=middle;fontFamily=Helvetica;fontSize=11;fontColor=default;labelBackgroundColor=default;endArrow=none;startArrow=classic;startFill=1;endFill=0;" parent="1" source="5GwKu-te4NYEdRIqfAdi-16" edge="1">
          <mxGeometry relative="1" as="geometry">
            <mxPoint x="460" y="380" as="targetPoint" />
          </mxGeometry>
        </mxCell>
        <mxCell id="5GwKu-te4NYEdRIqfAdi-16" value="Reverse engineer procedure" style="rounded=0;whiteSpace=wrap;html=1;" parent="1" vertex="1">
          <mxGeometry x="400" y="410" width="120" height="60" as="geometry" />
        </mxCell>
        <mxCell id="5GwKu-te4NYEdRIqfAdi-22" value="Yes" style="edgeStyle=orthogonalEdgeStyle;rounded=0;orthogonalLoop=1;jettySize=auto;html=1;" parent="1" source="5GwKu-te4NYEdRIqfAdi-18" target="5GwKu-te4NYEdRIqfAdi-21" edge="1">
          <mxGeometry relative="1" as="geometry" />
        </mxCell>
        <mxCell id="5GwKu-te4NYEdRIqfAdi-24" value="No" style="edgeStyle=orthogonalEdgeStyle;rounded=0;orthogonalLoop=1;jettySize=auto;html=1;" parent="1" source="5GwKu-te4NYEdRIqfAdi-18" target="5GwKu-te4NYEdRIqfAdi-23" edge="1">
          <mxGeometry relative="1" as="geometry" />
        </mxCell>
        <mxCell id="5GwKu-te4NYEdRIqfAdi-18" value="Design&lt;br&gt;change?" style="rhombus;whiteSpace=wrap;html=1;" parent="1" vertex="1">
          <mxGeometry x="260" y="520" width="80" height="80" as="geometry" />
        </mxCell>
        <mxCell id="5GwKu-te4NYEdRIqfAdi-28" style="rounded=0;orthogonalLoop=1;jettySize=auto;html=1;exitX=1;exitY=0;exitDx=0;exitDy=0;entryX=0;entryY=1;entryDx=0;entryDy=0;" parent="1" source="5GwKu-te4NYEdRIqfAdi-21" target="5GwKu-te4NYEdRIqfAdi-25" edge="1">
          <mxGeometry relative="1" as="geometry" />
        </mxCell>
        <mxCell id="5GwKu-te4NYEdRIqfAdi-21" value="Design change procedure" style="rounded=0;whiteSpace=wrap;html=1;" parent="1" vertex="1">
          <mxGeometry x="400" y="530" width="120" height="60" as="geometry" />
        </mxCell>
        <mxCell id="5GwKu-te4NYEdRIqfAdi-23" value="Don&#39;t go ahead." style="rounded=0;whiteSpace=wrap;html=1;" parent="1" vertex="1">
          <mxGeometry x="80" y="530" width="120" height="60" as="geometry" />
        </mxCell>
        <mxCell id="5GwKu-te4NYEdRIqfAdi-31" value="Yes" style="rounded=0;orthogonalLoop=1;jettySize=auto;html=1;exitX=0.5;exitY=1;exitDx=0;exitDy=0;entryX=0.5;entryY=0;entryDx=0;entryDy=0;" parent="1" source="5GwKu-te4NYEdRIqfAdi-25" target="5GwKu-te4NYEdRIqfAdi-35" edge="1">
          <mxGeometry relative="1" as="geometry">
            <mxPoint x="640" y="520" as="targetPoint" />
          </mxGeometry>
        </mxCell>
        <mxCell id="5GwKu-te4NYEdRIqfAdi-38" value="No" style="edgeStyle=none;rounded=0;orthogonalLoop=1;jettySize=auto;html=1;strokeColor=default;align=center;verticalAlign=middle;fontFamily=Helvetica;fontSize=11;fontColor=default;labelBackgroundColor=default;endArrow=classic;" parent="1" source="5GwKu-te4NYEdRIqfAdi-25" target="5GwKu-te4NYEdRIqfAdi-37" edge="1">
          <mxGeometry relative="1" as="geometry" />
        </mxCell>
        <mxCell id="5GwKu-te4NYEdRIqfAdi-25" value="Approved?" style="rhombus;whiteSpace=wrap;html=1;" parent="1" vertex="1">
          <mxGeometry x="600" y="400" width="80" height="80" as="geometry" />
        </mxCell>
        <mxCell id="5GwKu-te4NYEdRIqfAdi-35" value="Design file completion" style="rounded=0;whiteSpace=wrap;html=1;fontFamily=Helvetica;fontSize=11;fontColor=default;labelBackgroundColor=default;" parent="1" vertex="1">
          <mxGeometry x="580" y="520" width="120" height="40" as="geometry" />
        </mxCell>
        <mxCell id="5GwKu-te4NYEdRIqfAdi-36" value="Device release" style="rounded=0;whiteSpace=wrap;html=1;fontFamily=Helvetica;fontSize=11;fontColor=default;labelBackgroundColor=default;" parent="1" vertex="1">
          <mxGeometry x="580" y="560" width="120" height="40" as="geometry" />
        </mxCell>
        <mxCell id="5GwKu-te4NYEdRIqfAdi-39" value="No" style="edgeStyle=orthogonalEdgeStyle;rounded=0;orthogonalLoop=1;jettySize=auto;html=1;exitX=0.5;exitY=0;exitDx=0;exitDy=0;strokeColor=default;align=center;verticalAlign=middle;fontFamily=Helvetica;fontSize=11;fontColor=default;labelBackgroundColor=default;endArrow=classic;entryX=0.5;entryY=1;entryDx=0;entryDy=0;" parent="1" source="5GwKu-te4NYEdRIqfAdi-37" target="5GwKu-te4NYEdRIqfAdi-14" edge="1">
          <mxGeometry x="-0.8857" relative="1" as="geometry">
            <mxPoint x="460" y="380" as="targetPoint" />
            <Array as="points">
              <mxPoint x="760" y="380" />
              <mxPoint x="460" y="380" />
            </Array>
            <mxPoint as="offset" />
          </mxGeometry>
        </mxCell>
        <mxCell id="5GwKu-te4NYEdRIqfAdi-43" value="No" style="edgeStyle=orthogonalEdgeStyle;rounded=0;orthogonalLoop=1;jettySize=auto;html=1;exitX=0.5;exitY=1;exitDx=0;exitDy=0;entryX=0.5;entryY=1;entryDx=0;entryDy=0;strokeColor=default;align=center;verticalAlign=middle;fontFamily=Helvetica;fontSize=11;fontColor=default;labelBackgroundColor=default;endArrow=classic;" parent="1" source="5GwKu-te4NYEdRIqfAdi-37" target="5GwKu-te4NYEdRIqfAdi-21" edge="1">
          <mxGeometry x="-0.9111" relative="1" as="geometry">
            <mxPoint as="offset" />
          </mxGeometry>
        </mxCell>
        <mxCell id="5GwKu-te4NYEdRIqfAdi-45" value="Yes" style="edgeStyle=orthogonalEdgeStyle;rounded=0;orthogonalLoop=1;jettySize=auto;html=1;exitX=1;exitY=0.5;exitDx=0;exitDy=0;entryX=1;entryY=0.5;entryDx=0;entryDy=0;strokeColor=default;align=center;verticalAlign=middle;fontFamily=Helvetica;fontSize=11;fontColor=default;labelBackgroundColor=default;endArrow=classic;" parent="1" source="5GwKu-te4NYEdRIqfAdi-37" target="5GwKu-te4NYEdRIqfAdi-44" edge="1">
          <mxGeometry x="0.6757" relative="1" as="geometry">
            <mxPoint as="offset" />
          </mxGeometry>
        </mxCell>
        <mxCell id="5GwKu-te4NYEdRIqfAdi-37" value="Call a halt?" style="rhombus;whiteSpace=wrap;html=1;fontFamily=Helvetica;fontSize=11;fontColor=default;labelBackgroundColor=default;" parent="1" vertex="1">
          <mxGeometry x="720" y="400" width="80" height="80" as="geometry" />
        </mxCell>
        <mxCell id="5GwKu-te4NYEdRIqfAdi-48" style="edgeStyle=none;rounded=0;orthogonalLoop=1;jettySize=auto;html=1;exitX=0;exitY=0.5;exitDx=0;exitDy=0;entryX=1;entryY=0.5;entryDx=0;entryDy=0;strokeColor=default;align=center;verticalAlign=middle;fontFamily=Helvetica;fontSize=11;fontColor=default;labelBackgroundColor=default;endArrow=classic;" parent="1" source="5GwKu-te4NYEdRIqfAdi-44" target="5GwKu-te4NYEdRIqfAdi-46" edge="1">
          <mxGeometry relative="1" as="geometry" />
        </mxCell>
        <mxCell id="5GwKu-te4NYEdRIqfAdi-44" value="Review: What went wrong?" style="rounded=0;whiteSpace=wrap;html=1;fontFamily=Helvetica;fontSize=11;fontColor=default;labelBackgroundColor=default;" parent="1" vertex="1">
          <mxGeometry x="580" y="640" width="120" height="60" as="geometry" />
        </mxCell>
        <mxCell id="5GwKu-te4NYEdRIqfAdi-46" value="Process Feedback" style="rounded=0;whiteSpace=wrap;html=1;fontFamily=Helvetica;fontSize=11;fontColor=default;labelBackgroundColor=default;" parent="1" vertex="1">
          <mxGeometry x="400" y="640" width="120" height="60" as="geometry" />
        </mxCell>
      </root>
    </mxGraphModel>
  </diagram>
</mxfile>
